<?xml version="1.0" encoding="utf-8"?>
<!-- Generator: Adobe Illustrator 24.3.0, SVG Export Plug-In . SVG Version: 6.00 Build 0)  -->
<svg version="1.1" id="visual" xmlns="http://www.w3.org/2000/svg" xmlns:xlink="http://www.w3.org/1999/xlink" x="0px" y="0px"
	 viewBox="0 0 900 300" style="enable-background:new 0 0 900 300;" xml:space="preserve">
<style type="text/css">
	.st0{fill:#054861;}
</style>
<path class="st0" d="M0,205l30,7c30,7,90,21,150,28.8c60,7.9,120,9.5,180,2.4c60-7.2,120-23.2,180-32.5c60-9.4,120-12,180-5.4
	C780,212,840,228,870,236l30,8v57h-30c-30,0-90,0-150,0s-120,0-180,0s-120,0-180,0s-120,0-180,0s-120,0-150,0H0V205z"/>
</svg>
