<svg id="visual" viewBox="0 0 900 300" width="900" height="300" xmlns="http://www.w3.org/2000/svg" xmlns:xlink="http://www.w3.org/1999/xlink" version="1.1"><rect x="0" y="0" width="900" height="300" fill="#151A1E"></rect><path d="M0 234L21.5 235C43 236 86 238 128.8 232.7C171.7 227.3 214.3 214.7 257.2 210.5C300 206.3 343 210.7 385.8 214.2C428.7 217.7 471.3 220.3 514.2 226.8C557 233.3 600 243.7 642.8 239.5C685.7 235.3 728.3 216.7 771.2 213.2C814 209.7 857 221.3 878.5 227.2L900 233L900 301L878.5 301C857 301 814 301 771.2 301C728.3 301 685.7 301 642.8 301C600 301 557 301 514.2 301C471.3 301 428.7 301 385.8 301C343 301 300 301 257.2 301C214.3 301 171.7 301 128.8 301C86 301 43 301 21.5 301L0 301Z" fill="#84F3DF"></path></svg>