<svg id="Layer_1" data-name="Layer 1" xmlns="http://www.w3.org/2000/svg" viewBox="0 0 614.22 504.554">
  <g>
    <g>
      <g>
        <polygon points="280.61 87.5 280.61 203.96 247.77 236.81 237.87 226.91 266.61 198.17 266.61 87.5 280.61 87.5" fill="#d6eff5"/>
        <path d="M273.61,154.086a19,19,0,1,0,17.651,11.991A19,19,0,0,0,273.61,154.086Zm0,29a10,10,0,1,1,10-10A10,10,0,0,1,273.61,183.086Z" transform="translate(0 -99.086)" fill="#d6eff5"/>
      </g>
      <g>
        <polygon points="171.61 32.5 171.61 148.96 138.77 181.81 128.87 171.91 157.61 143.17 157.61 32.5 171.61 32.5" fill="#d6eff5"/>
        <path d="M164.61,99.086a19,19,0,1,0,17.651,11.991A19,19,0,0,0,164.61,99.086Zm0,29a10,10,0,1,1,10-10A10,10,0,0,1,164.61,128.086Z" transform="translate(0 -99.086)" fill="#d6eff5"/>
      </g>
      <g>
        <polygon points="439.06 272.91 429.16 282.81 396.32 249.96 396.32 133.5 410.32 133.5 410.32 244.17 439.06 272.91" fill="#d6eff5"/>
        <path d="M403.32,200.086a19,19,0,0,0-7,36.66,18.888,18.888,0,0,0,14-.01,18.992,18.992,0,0,0-7-36.65Zm0,29a10,10,0,1,1,10-10A10,10,0,0,1,403.32,229.086Z" transform="translate(0 -99.086)" fill="#d6eff5"/>
      </g>
    </g>
    <g>
      <g>
        <polygon points="225.61 132.209 225.61 248.669 192.77 281.519 182.87 271.619 211.61 242.879 211.61 132.209 225.61 132.209" fill="#5bc1d7"/>
        <path d="M218.61,200.086a19,19,0,1,0,17.651,11.991A19,19,0,0,0,218.61,200.086Zm0,29a10,10,0,1,1,10-10A10,10,0,0,1,218.61,229.086Z" transform="translate(0 -99.086)" fill="#5bc1d7"/>
      </g>
      <g>
        <polygon points="384.06 225.619 374.16 235.519 341.32 202.669 341.32 86.209 355.32 86.209 355.32 196.879 384.06 225.619" fill="#5bc1d7"/>
        <path d="M348.32,152.795a19,19,0,0,0-7,36.66,18.769,18.769,0,0,0,7,1.34,18.571,18.571,0,0,0,7-1.35,18.992,18.992,0,0,0-7-36.65Zm0,29a10,10,0,1,1,10-10A10,10,0,0,1,348.32,181.8Z" transform="translate(0 -99.086)" fill="#5bc1d7"/>
      </g>
      <g>
        <polygon points="493.06 171.91 483.16 181.81 450.32 148.96 450.32 32.5 464.32 32.5 464.32 143.17 493.06 171.91" fill="#5bc1d7"/>
        <path d="M457.32,99.086a19,19,0,0,0-7,36.66,18.888,18.888,0,0,0,14-.01,18.992,18.992,0,0,0-7-36.65Zm0,29a10,10,0,1,1,10-10A10,10,0,0,1,457.32,128.086Z" transform="translate(0 -99.086)" fill="#5bc1d7"/>
      </g>
    </g>
  </g>
  <g>
    <path d="M604.97,376.866c1.69-35.22,3.64-58.63,3.64-58.63l-.3-.27-4.87-4.4-18.13-16.34-5.2-4.69-2.16-1.95-2.91,1.53-3.09,1.63c.4-6.22.66-9.66.66-9.66l-27-27-.54.32c.03-.21.04-.32.04-.32-143.5,0-230.71,95.18-238,103.43-.77-.88-2.45-2.73-5-5.35-21.44-22.03-104.73-98.08-233-98.08,0,0,.01.11.04.32l-.54-.32-27,27s.26,3.44.66,9.66l-3.71-1.95-2.29-1.21-2.81,2.53-5.19,4.68L10.2,314.1l-4.59,4.14s.71,8.61,1.65,23.23a.085.085,0,0,1,0,.07c.66,10.17,1.42,23.26,2.13,38.38,2.7,58,4.55,145.97-3.78,214.81,0,0,179.89-114.64,296.5-19.84,1.67,1.35,3.33,2.76,4.97,4.2v-10.03l.03.03.03-.03v10.03c116.39-102.31,301.47,15.64,301.47,15.64C600.13,524.666,602.2,434.8,604.97,376.866ZM73.33,304.706q-.3-4.395-.59-8.43Q73.04,300.311,73.33,304.706Zm228.78,239.78v-.01c.45.39.89.79,1.33,1.18C303,545.266,302.56,544.866,302.11,544.486Zm5.5,4.98c-.17-.16-.33-.31-.5-.46-.17.15-.33.3-.5.46v-.92c.17.15.33.31.5.46.17-.15.33-.31.5-.46Zm1.84-2.61c1.56-1.42,3.13-2.81,4.69-4.16-1.56,1.36-3.12,2.74-4.69,4.16Zm231.44-242.15q.285-4.395.59-8.43Q541.195,300.311,540.89,304.706Z" transform="translate(0 -99.086)" fill="#5bc1d7"/>
    <path d="M302.11,355.166v219.72c-116.61-94.8-296.5,19.84-296.5,19.84,13.63-112.64,0-276.49,0-276.49l30.66-27.65,6,3.16c-.4-6.22-.66-9.66-.66-9.66l27-27,.54.32c-.03-.21-.04-.32-.04-.32C197.38,257.086,280.67,333.136,302.11,355.166Z" transform="translate(0 -99.086)" fill="#84d0e1" style="isolation: isolate"/>
    <path d="M613.08,594.19c-10.51-86.87-4.63-205.77-1.53-253.97a.249.249,0,0,0,.01-.08c.85-13.28,1.5-21.17,1.53-21.53l.19-2.22-9.73-8.77-18.48-16.66-6.44-5.81-1.65.87q.1-1.455.12-1.59l.15-2.06L549.9,255.02l-2.43-2.43h-3.1c-78.22.18-139.5,28.74-177.18,52.7-31.6,20.11-51.99,40.02-60.08,48.56-8.09-8.54-28.48-28.45-60.08-48.56-37.68-23.96-98.96-52.52-177.18-52.7h-3.1L39.39,279.95l-2.42,2.42.15,2.06q.015.135.12,1.59l-1.65-.87-7.09,6.39L10.08,308.15.94,316.39l.19,2.22c.04.43.97,11.87,2.09,30.52,3.16,52.74,7.83,163.14-2.08,245.06L0,603.64l8.03-5.12c.46-.29,46.38-29.31,105.86-45.64,78.34-21.5,141.83-11.98,188.75,28.33q.735.615,1.47,1.26l3,2.64,3-2.64q.735-.645,1.47-1.26c46.88-40.27,110.3-49.82,188.54-28.38,59.51,16.3,105.61,45.4,106.07,45.69l8.03,5.12ZM74.16,261.63c73.86,1.19,131.83,28.28,167.76,51.08,32.99,20.95,53.83,42.13,60.19,49v176.8c-.87-.74-1.74-1.48-2.61-2.21-.86-.71-1.71-1.42-2.57-2.12s-1.71-1.39-2.57-2.08q-2.58-2.055-5.18-4.02c-1.02-.78-2.05-1.54-3.08-2.29-.72-.53-1.43-1.04-2.15-1.56-.87-.62-1.73-1.23-2.6-1.84a228.387,228.387,0,0,0-23.63-14.47c-.58-.31-1.15-.61-1.73-.91-2.5-1.3-5.01-2.55-7.54-3.73-.75-.35-1.5-.7-2.25-1.04-1.43-.66-2.86-1.3-4.3-1.9-.65-.28-1.3-.55-1.95-.82-1.12-.47-2.25-.93-3.38-1.37-.71-.28-1.42-.56-2.13-.83-2.1-.81-4.21-1.58-6.33-2.29-.53-.19-1.05-.37-1.58-.54-.39-.13-.77-.26-1.16-.38-.55-.19-1.1-.37-1.66-.54-.94-.3-1.89-.6-2.84-.88-1-.3-2-.59-3.01-.87-.75-.22-1.5-.42-2.26-.62a181.87,181.87,0,0,0-18.19-3.96c-1.14-.19-2.29-.37-3.44-.54-2.29-.34-4.6-.64-6.91-.89s-4.62-.47-6.93-.64c-.03,0-.06-.01-.09-.01-2.07-.15-4.14-.27-6.22-.34q-6.93-.285-13.91-.05c-1.38.04-2.77.1-4.16.18-3.33.17-6.66.44-10,.79-.98.1-1.95.21-2.93.33-1,.12-1.99.25-2.98.38-1.92.26-3.8.54-5.66.84-2.92.49-5.77,1.02-8.53,1.59q-2.655.555-5.21,1.15l-.12.03c-.65.15-1.29.31-1.92.46-1.27.32-2.52.63-3.75.96-.62.16-1.22.33-1.83.49-2.49.69-4.89,1.41-7.21,2.13-1.52.48-3,.97-4.45,1.46-1.33.45-2.62.91-3.88,1.36-2.86,1.04-5.54,2.07-8.04,3.11-1.03.42-2.03.84-2.99,1.26-.16.07-.32.14-.48.2-.81.36-1.6.71-2.36,1.05l-2.22,1.02c-2.49,1.16-4.69,2.26-6.57,3.24.25-2.18.48-4.35.71-6.53.08-.75.16-1.5.23-2.26q.33-3.09.61-6.18.9-9.39,1.59-18.73c.18-2.44.35-4.88.52-7.3.09-1.28.17-2.55.25-3.82q.45-7.305.81-14.53a.915.915,0,0,0,.01-.16.57.57,0,0,1,.01-.13c0-.19.01-.37.02-.56q.15-3.21.29-6.41a1.028,1.028,0,0,0,.01-.17q.285-7.14.5-14.17c.05-1.77.1-3.54.14-5.29q.075-3.345.14-6.65c.01-.61.03-1.22.04-1.82a1281.14,1281.14,0,0,0-6.35-150.46ZM211.32,533.89c-30.39-3-63.97.47-99.81,10.31C65.3,556.89,27,577.13,11.1,586.23c6.39-60.32,5.6-133.56,3.51-188.27-1.51-39.71-3.7-69.66-4.34-77.86l.18-.16,17.74-16.01,8.76-7.9.98.52.01.01q.15,2.46.33,5.34c.52,8.65,1.15,20,1.76,33.33.73,15.98,1.43,34.79,1.89,55.15.35,15.46.56,31.81.51,48.5q0,5.31-.05,10.66c-.25,30.45-1.35,61.6-3.87,90.14-.11,1.19-.21,2.39-.33,3.58-.32,3.49-.67,6.93-1.04,10.34l-.91,8.36,7.46-3.88c.4-.21,40.91-21.06,93.18-29.55a269.691,269.691,0,0,1,43.4-3.67c1.33,0,2.66.01,3.98.04.23-.01.45,0,.67.01,1.17.02,2.35.05,3.51.1,1.25.04,2.48.09,3.71.16.42.02.84.04,1.25.07,1.19.06,2.37.14,3.53.24,1.24.09,2.47.19,3.7.31,1.14.1,2.27.22,3.4.34.4.05.8.09,1.2.14a.044.044,0,0,1,.05.01c1,.11,1.99.23,2.98.36l.44.06c1.03.14,2.05.28,3.07.44.25.03.49.07.74.11,2.52.39,5.02.82,7.49,1.31,1.25.24,2.48.5,3.71.77q.405.075.81.18c.99.22,1.97.44,2.94.68.01-.01.02,0,.03,0,1.22.3,2.42.6,3.62.91a.284.284,0,0,1,.12.04c1.09.28,2.17.58,3.24.89a5.437,5.437,0,0,1,.54.15c1.11.32,2.21.64,3.3.98.03.01.05.02.08.03,1.18.37,2.36.75,3.53,1.14.96.32,1.9.64,2.85.98a.349.349,0,0,1,.13.05c.54.19,1.08.38,1.62.59.94.33,1.87.69,2.8,1.05.71.27,1.42.56,2.13.85.8.31,1.59.64,2.37.98q.495.2.99.42c.45.19.9.38,1.34.58,1.94.85,3.85,1.75,5.75,2.68.48.23.96.47,1.43.71.75.37,1.49.75,2.24,1.14.28.15.57.3.86.46.65.34,1.29.68,1.93,1.04q2.22,1.2,4.39,2.49c.78.46,1.57.93,2.35,1.41.09.06.19.12.28.18.81.49,1.62,1,2.42,1.52.32.2.64.41.96.62.87.56,1.74,1.14,2.61,1.73,1.16.79,2.3,1.59,3.44,2.4.86.62,1.71,1.24,2.56,1.88q1.485,1.11,2.94,2.25c.97.76,1.93,1.53,2.89,2.32C269.46,546.58,242,536.92,211.32,533.89Zm91.29,24.95c-.14-.12-.28-.23-.42-.35-.03-.02-.05-.05-.08-.07-.13-.11-.26-.21-.38-.32-2.62-2.24-5.28-4.4-8.01-6.45-.82-.62-1.65-1.23-2.48-1.84-.81-.59-1.63-1.18-2.46-1.75a.284.284,0,0,0-.11-.08c-.81-.57-1.62-1.13-2.44-1.68-.02-.02-.05-.03-.07-.05-.75-.5-1.5-.99-2.25-1.49-.16-.1-.32-.21-.49-.31-.79-.51-1.58-1.02-2.38-1.51q-2.61-1.62-5.28-3.15c-.85-.49-1.7-.97-2.56-1.45l-.12-.06c-.9-.49-1.8-.97-2.71-1.45s-1.82-.95-2.74-1.41-1.84-.91-2.76-1.35-1.86-.89-2.8-1.31c-.8-.37-1.61-.74-2.43-1.1-1.1-.48-2.22-.95-3.34-1.42-.8-.33-1.62-.66-2.43-.98-.46-.19-.93-.37-1.39-.55-1.51-.58-3.03-1.15-4.57-1.69-.93-.33-1.86-.65-2.79-.97-.84-.28-1.68-.55-2.53-.82-.89-.29-1.79-.57-2.69-.84s-1.81-.54-2.72-.8-1.82-.51-2.73-.76-1.84-.48-2.76-.72-1.85-.46-2.78-.68-1.86-.43-2.8-.64-1.9-.41-2.85-.61c-2.82-.58-5.68-1.1-8.56-1.55-1.4-.23-2.81-.44-4.22-.63a229.171,229.171,0,0,0-38.92-1.94q-2.715.09-5.46.24-5.625.3-11.35.85c-3.42.33-6.86.72-10.34,1.18-.44.05-.89.11-1.34.18-2.61.35-5.25.75-7.89,1.18q-5.76.945-11.3,2.05c-2.46.49-4.88,1.01-7.28,1.54-2.38.53-4.73,1.08-7.03,1.64-1.16.29-2.31.58-3.46.87-2.26.58-4.49,1.17-6.67,1.77-1.41.39-2.8.79-4.18,1.19-1.5.43-2.98.87-4.43,1.31a351.1,351.1,0,0,0-43.92,16.48c.13-1.32.25-2.65.37-3.99q.21-2.2.39-4.44c.14-1.6.28-3.22.41-4.84.16-2.2.33-4.43.49-6.66a.375.375,0,0,0,.01-.1q.225-3.33.45-6.71a.615.615,0,0,0,.01-.13c1.45-22.94,2.14-47,2.32-70.63.02-3.35.04-6.69.04-10.01.02-8.14-.02-16.2-.1-24.12-.11-10.26-.3-20.28-.54-29.91-.9-36.7-2.56-67.82-3.63-85.52q-.03-.75-.09-1.47c-.05-.8-.1-1.57-.14-2.31-.01-.14-.01-.28-.03-.42-.11-1.6-.2-3.06-.28-4.35-.15-2.18-.27-3.9-.35-5.11l19.37-19.37c.09.88.18,1.82.28,2.82.04.35.07.71.1,1.07.26,2.62.54,5.63.83,8.98.08.84.16,1.7.23,2.58.04.44.08.88.11,1.33a1266.638,1266.638,0,0,1,3.79,148.88c-.1,3.29-.23,6.57-.36,9.86q-.12,2.91-.27,5.84c-.04.85-.08,1.69-.13,2.54-.08,1.53-.16,3.06-.25,4.6-.08,1.35-.15,2.7-.24,4.05q-.225,3.855-.5,7.74c-.09,1.35-.19,2.7-.29,4.06-.18,2.6-.39,5.2-.6,7.81q-.81,9.96-1.85,19.98-.36,3.48-.76,6.96-.09.915-.21,1.83c-.27,2.38-.55,4.76-.85,7.16l-1.18,9.55,8.09-5.22c.01-.01.09-.06.23-.15.09-.05.21-.13.36-.22l.52-.31c.33-.2.73-.43,1.2-.7a1.522,1.522,0,0,1,.3-.17c.2-.12.42-.24.65-.37.12-.07.24-.13.36-.2.36-.2.75-.42,1.17-.64.39-.22.82-.45,1.26-.68,1.64-.86,3.6-1.85,5.84-2.93.58-.28,1.19-.57,1.81-.85.34-.15.68-.31,1.02-.47,1-.46,2.05-.93,3.15-1.4.03-.01.07-.03.1-.04.72-.32,1.46-.63,2.22-.95.83-.34,1.69-.69,2.56-1.04.8-.33,1.62-.65,2.45-.97.05-.02.1-.04.14-.06,1.27-.48,2.59-.97,3.94-1.46.05-.02.1-.03.14-.05.92-.33,1.85-.66,2.8-.98s1.92-.65,2.9-.97c.05-.02.11-.03.16-.05,1.14-.37,2.3-.74,3.49-1.1.74-.23,1.49-.45,2.25-.67,1.51-.45,3.07-.88,4.65-1.3.79-.21,1.59-.42,2.4-.62.65-.16,1.3-.32,1.96-.48q.885-.225,1.77-.42c1.12-.27,2.26-.52,3.4-.76.69-.14,1.38-.29,2.08-.43,1.22-.25,2.45-.49,3.7-.71,1.83-.33,3.69-.65,5.58-.93l.21-.03c.98-.15,1.96-.29,2.96-.42.92-.13,1.86-.25,2.8-.36a.749.749,0,0,1,.21-.02q4.17-.51,8.31-.81c.12,0,.23-.01.35-.02,1.77-.14,3.54-.24,5.3-.32q7.875-.345,15.64-.04c1.14.04,2.28.09,3.41.16.55.03,1.09.07,1.64.1.45.03.9.06,1.35.1a178.065,178.065,0,0,1,39.8,7.59c1.37.42,2.74.86,4.1,1.32.08.03.15.05.23.08,1.35.46,2.71.94,4.06,1.43l.24.09c.72.26,1.43.52,2.15.8s1.42.54,2.14.83q3.21,1.26,6.39,2.65c1.32.57,2.63,1.16,3.93,1.76.16.08.31.15.46.22.65.3,1.3.6,1.95.92.6.29,1.19.57,1.79.87.7.34,1.39.68,2.09,1.04s1.39.71,2.09,1.07q8.55,4.455,16.94,9.84,1.815,1.17,3.63,2.38c.14.09.27.18.4.27.68.46,1.36.92,2.04,1.39.85.59,1.7,1.18,2.56,1.79.5.35.99.7,1.49,1.06q4.185,3.015,8.32,6.26c.57.45,1.14.9,1.71,1.36q4.98,3.975,9.89,8.31c.65.57,1.31,1.15,1.96,1.75.49.43.98.87,1.46,1.32.17.15.33.3.5.45Zm9.5-197.13c6.37-6.88,27.2-28.06,60.19-49,35.93-22.8,93.9-49.89,167.76-51.08h.01a1283.766,1283.766,0,0,0-6.41,146.6c.02,1.89.06,3.78.09,5.69q.06,3.255.14,6.54c.04,1.72.09,3.45.14,5.18a1.477,1.477,0,0,0,.01.21q.21,7.02.5,14.16a1.087,1.087,0,0,0,.01.18q.15,3.54.32,7.09a1.028,1.028,0,0,0,.01.17q.36,7.215.81,14.52c.08,1.28.16,2.55.25,3.83.17,2.42.34,4.86.52,7.29q.69,9.33,1.59,18.74.285,3.09.61,6.18c.07.75.15,1.51.23,2.26.23,2.18.46,4.35.71,6.53-1.88-.98-4.08-2.08-6.57-3.24l-2.22-1.02c-.76-.34-1.55-.69-2.36-1.05-.16-.06-.32-.13-.48-.2-.96-.42-1.96-.84-2.99-1.26q-3.75-1.545-8.04-3.11c-1.26-.45-2.55-.91-3.88-1.36-1.45-.49-2.93-.98-4.45-1.46q-3.48-1.11-7.22-2.13c-2.35-.64-4.78-1.27-7.28-1.86-.11-.02-.22-.05-.34-.08-1.7-.4-3.43-.79-5.2-1.15q-4.155-.855-8.54-1.59c-1.85-.3-3.74-.58-5.65-.84-.99-.13-1.98-.26-2.98-.38-.98-.12-1.95-.23-2.93-.33-3.32-.35-6.63-.62-9.94-.79-1.44-.08-2.89-.15-4.33-.19q-6.84-.225-13.63.05c-2.13.08-4.26.19-6.39.35-.03,0-.06.01-.08.01-2.31.17-4.63.38-6.94.64s-4.62.55-6.91.89c-1.14.17-2.29.35-3.44.54q-5.415.9-10.78,2.12-2.985.675-5.97,1.45c-.63.16-1.25.33-1.87.51-.61.15-1.22.32-1.83.5-1.01.28-2.01.57-3.01.87-.95.28-1.9.58-2.84.88-.56.17-1.11.35-1.66.54-.39.12-.77.25-1.16.38-.53.17-1.05.35-1.58.54q-3.18,1.08-6.33,2.29c-.71.27-1.42.55-2.13.83-1.13.44-2.26.9-3.38,1.37-.65.27-1.3.54-1.95.82q-2.16.915-4.3,1.9c-.75.34-1.5.69-2.25,1.04-2.53,1.18-5.04,2.43-7.54,3.73-.58.3-1.15.6-1.73.91a228.387,228.387,0,0,0-23.63,14.47c-.87.61-1.73,1.22-2.6,1.84-.72.52-1.43,1.03-2.15,1.56-1.03.75-2.06,1.51-3.08,2.29q-2.6,1.965-5.18,4.02c-.86.69-1.72,1.38-2.57,2.08s-1.71,1.41-2.57,2.12c-.87.73-1.74,1.47-2.61,2.21Zm.37,196.4c-.12.11-.25.21-.37.31-.03.02-.05.05-.08.07-.14.12-.28.23-.42.35v-7.86c.17-.15.33-.3.5-.45.48-.45.97-.89,1.46-1.32.65-.6,1.31-1.18,1.96-1.75q4.905-4.32,9.89-8.31c.57-.46,1.15-.92,1.72-1.36q4.14-3.255,8.31-6.26c.5-.36.99-.71,1.49-1.06.86-.61,1.71-1.2,2.56-1.79.68-.47,1.36-.93,2.04-1.39.13-.09.26-.18.4-.27,1.21-.81,2.42-1.61,3.64-2.38a209.575,209.575,0,0,1,22.9-12.82c.7-.34,1.41-.67,2.11-1,1.41-.66,2.82-1.3,4.23-1.9.71-.32,1.42-.62,2.13-.91q2.13-.9,4.26-1.74c.71-.29,1.43-.56,2.14-.83s1.43-.54,2.15-.8l.24-.09c1.35-.49,2.7-.97,4.06-1.43.08-.03.15-.05.23-.08,1.36-.46,2.73-.9,4.1-1.32,2.89-.9,5.79-1.73,8.71-2.47.59-.16,1.18-.31,1.77-.44.92-.23,1.85-.45,2.77-.67,1.42-.32,2.83-.63,4.25-.92a178.213,178.213,0,0,1,22.3-3.09c.45-.04.9-.07,1.35-.1.55-.03,1.09-.07,1.64-.1,1.16-.07,2.33-.13,3.49-.17q6.465-.255,13.02-.05c1.74.06,3.49.14,5.25.25.93.05,1.87.12,2.8.18.7.05,1.4.11,2.11.17,1.4.11,2.81.25,4.22.41.65.06,1.29.13,1.94.21,2.08.24,4.13.51,6.15.83,1.91.28,3.79.6,5.63.93.05.01.1.02.16.03,1.22.22,2.41.45,3.6.69.66.14,1.32.27,1.98.41,1.17.25,2.33.5,3.47.77q3.63.84,7.05,1.77c1.08.29,2.15.59,3.2.89l.1.03q2.4.69,4.68,1.41c3.13.99,6.09,2.01,8.87,3.03.79.29,1.56.58,2.32.87,3.74,1.43,7.13,2.86,10.12,4.2.64.29,1.26.57,1.86.85,2.35,1.09,4.42,2.11,6.2,3.02.5.26.98.51,1.43.75,3.89,2.05,6.02,3.41,6.1,3.46l8.09,5.24-1.18-9.57q-.45-3.585-.85-7.16-.285-2.4-.54-4.8c-.15-1.33-.29-2.66-.43-3.99q-1.05-10.02-1.85-19.98-.315-3.915-.6-7.8c-.1-1.36-.2-2.72-.29-4.08q-.27-3.87-.5-7.71-.135-2.04-.24-4.08c-.09-1.54-.17-3.07-.25-4.6q-.225-4.275-.41-8.52a1267.778,1267.778,0,0,1,3.35-157.5c.36-4.45.72-8.4,1.05-11.81a.045.045,0,0,1,0-.05c.07-.73.13-1.44.21-2.13.03-.36.06-.71.1-1.06.1-1,.19-1.94.28-2.82l19.37,19.37c-.08,1.21-.2,2.93-.35,5.11-.08,1.29-.17,2.75-.28,4.35-.02.14-.02.28-.03.42-.04.74-.09,1.51-.14,2.31q-.06.72-.09,1.47c-1.05,17.37-2.67,47.69-3.58,83.52-.2,7.77-.37,15.8-.49,24.02-.52,36.15-.17,75.85,2.16,112.65a.615.615,0,0,0,.01.13c.15,2.25.3,4.48.45,6.71a.375.375,0,0,0,.01.1c.16,2.23.33,4.46.49,6.66.13,1.62.27,3.24.41,4.84q.18,2.235.39,4.44c.12,1.34.24,2.67.37,3.99a352.678,352.678,0,0,0-43.92-16.48c-1.45-.44-2.93-.88-4.43-1.31-1.38-.4-2.77-.8-4.18-1.19-2.18-.6-4.41-1.19-6.67-1.77-1.15-.29-2.3-.58-3.46-.87-2.3-.56-4.65-1.11-7.03-1.64-2.4-.53-4.82-1.05-7.28-1.54q-5.535-1.11-11.3-2.05c-2.64-.43-5.28-.83-7.89-1.18-.45-.07-.9-.13-1.34-.18-3.48-.46-6.92-.85-10.34-1.18q-5.73-.555-11.35-.85c-1.83-.1-3.64-.18-5.45-.24a238.694,238.694,0,0,0-24.95.47c-1.76.13-3.52.27-5.26.44-3.07.3-6.1.66-9.11,1.08-1.24.17-2.49.36-3.72.56q-4.38.69-8.67,1.57c-.95.2-1.9.4-2.85.61s-1.87.42-2.8.64-1.86.45-2.78.68-1.84.47-2.76.72-1.82.5-2.73.76-1.82.53-2.72.8-1.8.55-2.69.84c-.85.27-1.69.54-2.53.82-.93.32-1.86.64-2.79.97-1.54.54-3.06,1.11-4.57,1.69-.46.18-.93.36-1.39.55-.81.32-1.63.65-2.43.98-1.12.47-2.24.94-3.34,1.42-.82.36-1.63.73-2.43,1.1-.94.42-1.87.86-2.8,1.31s-1.85.89-2.76,1.35-1.83.93-2.74,1.41-1.81.96-2.71,1.45l-.12.06c-.86.48-1.71.96-2.56,1.45q-2.67,1.53-5.28,3.15c-.8.49-1.59,1-2.38,1.51-.17.1-.33.21-.49.31-.75.5-1.5.99-2.25,1.49-.02.02-.05.03-.07.05-.82.55-1.63,1.11-2.44,1.68a.284.284,0,0,0-.11.08c-.83.57-1.65,1.16-2.46,1.75-.83.61-1.66,1.22-2.48,1.84C317.77,553.7,315.1,555.87,312.48,558.11ZM502.71,544.2c-27.52-7.55-53.7-11.35-78.13-11.35q-11.085,0-21.68,1.04c-30.69,3.03-58.14,12.69-81.88,28.77q3.03-2.49,6.15-4.8c.74-.56,1.49-1.1,2.24-1.64,0-.01,0-.01.01-.01.56-.4,1.12-.8,1.69-1.19.81-.57,1.62-1.13,2.44-1.67.5-.35,1.01-.68,1.51-1,.39-.27.78-.52,1.18-.77.69-.45,1.38-.89,2.08-1.32.36-.23.73-.45,1.09-.67,1.86-1.14,3.74-2.24,5.64-3.28.41-.23.81-.46,1.22-.67.45-.25.91-.5,1.37-.74l1.02-.54c.74-.39,1.49-.77,2.24-1.14.47-.24.95-.48,1.43-.71,1.89-.93,3.81-1.83,5.75-2.68.44-.2.89-.39,1.34-.58q.495-.225.99-.42c.79-.34,1.57-.67,2.37-.98.71-.29,1.42-.58,2.13-.85.86-.34,1.73-.67,2.6-.98.65-.25,1.3-.48,1.95-.71.02-.01.03-.02.05-.02.93-.33,1.86-.65,2.8-.96,1.17-.39,2.35-.77,3.53-1.14.03-.01.05-.02.08-.03,1.09-.34,2.19-.66,3.3-.98a5.437,5.437,0,0,1,.54-.15c1.07-.31,2.15-.61,3.24-.89a.284.284,0,0,1,.12-.04c1.2-.31,2.4-.61,3.62-.91.01,0,.02-.01.03,0,.97-.24,1.95-.46,2.94-.68q.405-.1.81-.18c1.23-.27,2.46-.53,3.71-.77,2.47-.48,4.96-.92,7.49-1.31.25-.04.49-.08.74-.11,1.02-.16,2.04-.3,3.07-.44l.44-.06c.99-.13,1.98-.25,2.98-.36a.044.044,0,0,1,.05-.01c.4-.05.8-.09,1.2-.14,1.13-.12,2.26-.24,3.4-.34,1.23-.12,2.46-.22,3.7-.31,1.16-.1,2.34-.18,3.53-.24.41-.03.83-.05,1.25-.07,1.23-.07,2.46-.12,3.71-.16,1.16-.05,2.34-.08,3.51-.1.22-.01.44-.02.67-.01,1.32-.03,2.65-.04,3.98-.04a269.691,269.691,0,0,1,43.4,3.67c52.27,8.49,92.78,29.34,93.18,29.55l7.47,3.88-.92-8.36q-.555-5.1-1.04-10.34c-.12-1.19-.22-2.38-.33-3.58-3.7-41.84-4.34-89.3-3.73-131.9.05-3.38.1-6.72.17-10.03.06-3.15.12-6.27.2-9.34.93-40.25,2.81-74.2,3.93-91.85l.01-.01.98-.52,8.13,7.34,17.81,16.06.74.67c-.63,8.05-2.75,37.08-4.26,75.71-2.15,54.94-3.05,129.31,3.43,190.42C587.22,577.13,548.92,556.89,502.71,544.2Z" transform="translate(0 -99.086)" fill="#2d2d2d"/>
  </g>
</svg>
