<svg id="visual" viewBox="0 0 900 900" width="900" height="900" xmlns="http://www.w3.org/2000/svg" xmlns:xlink="http://www.w3.org/1999/xlink" version="1.1"><g stroke-width="1" stroke-linejoin="bevel"><path d="M414.1 484.9L408.1 414.1L332.3 485.9Z" fill="#3b3c3c" stroke="#3b3c3c"></path><path d="M408.1 414.1L331.3 411.1L332.3 485.9Z" fill="#1a1a1a" stroke="#1a1a1a"></path><path d="M414.1 484.9L487.9 407.1L408.1 414.1Z" fill="#3b3c3c" stroke="#3b3c3c"></path><path d="M408.1 414.1L405.1 326.3L331.3 411.1Z" fill="#1a1a1a" stroke="#1a1a1a"></path><path d="M332.3 485.9L405.1 577.7L414.1 484.9Z" fill="#101010" stroke="#101010"></path><path d="M414.1 484.9L495.9 493.9L487.9 407.1Z" fill="#151515" stroke="#151515"></path><path d="M489.9 573.7L495.9 493.9L414.1 484.9Z" fill="#2d2d2d" stroke="#2d2d2d"></path><path d="M487.9 407.1L405.1 326.3L408.1 414.1Z" fill="#232323" stroke="#232323"></path><path d="M245.5 409.1L246.5 485.9L331.3 411.1Z" fill="#404141" stroke="#404141"></path><path d="M331.3 411.1L246.5 485.9L332.3 485.9Z" fill="#2d2d2d" stroke="#2d2d2d"></path><path d="M332.3 485.9L321.3 573.7L405.1 577.7Z" fill="#363737" stroke="#363737"></path><path d="M246.5 485.9L321.3 573.7L332.3 485.9Z" fill="#1a1a1a" stroke="#1a1a1a"></path><path d="M329.3 325.3L245.5 409.1L331.3 411.1Z" fill="#282828" stroke="#282828"></path><path d="M405.1 326.3L329.3 325.3L331.3 411.1Z" fill="#2d2d2d" stroke="#2d2d2d"></path><path d="M405.1 577.7L489.9 573.7L414.1 484.9Z" fill="#151515" stroke="#151515"></path><path d="M574.7 405.1L495.9 329.3L487.9 407.1Z" fill="#1a1a1a" stroke="#1a1a1a"></path><path d="M487.9 407.1L495.9 329.3L405.1 326.3Z" fill="#313232" stroke="#313232"></path><path d="M161.6 488.9L243.5 571.7L246.5 485.9Z" fill="#282828" stroke="#282828"></path><path d="M246.5 485.9L243.5 571.7L321.3 573.7Z" fill="#151515" stroke="#151515"></path><path d="M329.3 657.5L404.1 655.5L405.1 577.7Z" fill="#151515" stroke="#151515"></path><path d="M324.3 248.5L245.5 323.3L329.3 325.3Z" fill="#1a1a1a" stroke="#1a1a1a"></path><path d="M329.3 325.3L245.5 323.3L245.5 409.1Z" fill="#363737" stroke="#363737"></path><path d="M245.5 409.1L161.6 488.9L246.5 485.9Z" fill="#232323" stroke="#232323"></path><path d="M329.3 657.5L405.1 577.7L321.3 573.7Z" fill="#151515" stroke="#151515"></path><path d="M405.1 577.7L492.9 650.5L489.9 573.7Z" fill="#232323" stroke="#232323"></path><path d="M577.7 569.7L573.7 495.9L495.9 493.9Z" fill="#2d2d2d" stroke="#2d2d2d"></path><path d="M495.9 493.9L574.7 405.1L487.9 407.1Z" fill="#1a1a1a" stroke="#1a1a1a"></path><path d="M577.7 569.7L495.9 493.9L489.9 573.7Z" fill="#363737" stroke="#363737"></path><path d="M573.7 495.9L574.7 405.1L495.9 493.9Z" fill="#101010" stroke="#101010"></path><path d="M248.5 653.5L329.3 657.5L321.3 573.7Z" fill="#101010" stroke="#101010"></path><path d="M413.1 241.5L324.3 248.5L405.1 326.3Z" fill="#313232" stroke="#313232"></path><path d="M405.1 326.3L324.3 248.5L329.3 325.3Z" fill="#101010" stroke="#101010"></path><path d="M162.6 404.1L161.6 488.9L245.5 409.1Z" fill="#101010" stroke="#101010"></path><path d="M489.9 247.5L405.1 326.3L495.9 329.3Z" fill="#2d2d2d" stroke="#2d2d2d"></path><path d="M489.9 247.5L413.1 241.5L405.1 326.3Z" fill="#282828" stroke="#282828"></path><path d="M166.6 327.3L162.6 404.1L245.5 409.1Z" fill="#151515" stroke="#151515"></path><path d="M404.1 655.5L492.9 650.5L405.1 577.7Z" fill="#404141" stroke="#404141"></path><path d="M574.7 405.1L572.7 328.3L495.9 329.3Z" fill="#232323" stroke="#232323"></path><path d="M568.7 653.5L577.7 569.7L489.9 573.7Z" fill="#363737" stroke="#363737"></path><path d="M656.5 495.9L655.5 404.1L574.7 405.1Z" fill="#1f1f1f" stroke="#1f1f1f"></path><path d="M165.6 576.7L248.5 653.5L243.5 571.7Z" fill="#363737" stroke="#363737"></path><path d="M243.5 571.7L248.5 653.5L321.3 573.7Z" fill="#404141" stroke="#404141"></path><path d="M571.7 243.5L489.9 247.5L495.9 329.3Z" fill="#1a1a1a" stroke="#1a1a1a"></path><path d="M324.3 248.5L248.5 246.5L245.5 323.3Z" fill="#313232" stroke="#313232"></path><path d="M245.5 323.3L166.6 327.3L245.5 409.1Z" fill="#282828" stroke="#282828"></path><path d="M326.3 168.6L248.5 246.5L324.3 248.5Z" fill="#404141" stroke="#404141"></path><path d="M158.6 247.5L166.6 327.3L245.5 323.3Z" fill="#2d2d2d" stroke="#2d2d2d"></path><path d="M161.6 488.9L165.6 576.7L243.5 571.7Z" fill="#1a1a1a" stroke="#1a1a1a"></path><path d="M494.9 732.4L568.7 653.5L492.9 650.5Z" fill="#151515" stroke="#151515"></path><path d="M492.9 650.5L568.7 653.5L489.9 573.7Z" fill="#363737" stroke="#363737"></path><path d="M412.1 733.4L492.9 650.5L404.1 655.5Z" fill="#1f1f1f" stroke="#1f1f1f"></path><path d="M326.3 732.4L404.1 655.5L329.3 657.5Z" fill="#101010" stroke="#101010"></path><path d="M326.3 732.4L412.1 733.4L404.1 655.5Z" fill="#232323" stroke="#232323"></path><path d="M242.5 738.4L326.3 732.4L248.5 653.5Z" fill="#101010" stroke="#101010"></path><path d="M248.5 653.5L326.3 732.4L329.3 657.5Z" fill="#151515" stroke="#151515"></path><path d="M656.5 495.9L574.7 405.1L573.7 495.9Z" fill="#151515" stroke="#151515"></path><path d="M574.7 405.1L650.5 330.3L572.7 328.3Z" fill="#282828" stroke="#282828"></path><path d="M572.7 328.3L571.7 243.5L495.9 329.3Z" fill="#2d2d2d" stroke="#2d2d2d"></path><path d="M656.5 495.9L573.7 495.9L650.5 570.7Z" fill="#151515" stroke="#151515"></path><path d="M650.5 570.7L573.7 495.9L577.7 569.7Z" fill="#1f1f1f" stroke="#1f1f1f"></path><path d="M408.1 158.6L326.3 168.6L413.1 241.5Z" fill="#1a1a1a" stroke="#1a1a1a"></path><path d="M413.1 241.5L326.3 168.6L324.3 248.5Z" fill="#101010" stroke="#101010"></path><path d="M248.5 246.5L158.6 247.5L245.5 323.3Z" fill="#1f1f1f" stroke="#1f1f1f"></path><path d="M85.8 411.1L86.8 491.9L161.6 488.9Z" fill="#1f1f1f" stroke="#1f1f1f"></path><path d="M161.6 488.9L86.8 491.9L165.6 576.7Z" fill="#363737" stroke="#363737"></path><path d="M85.8 411.1L161.6 488.9L162.6 404.1Z" fill="#3b3c3c" stroke="#3b3c3c"></path><path d="M656.5 246.5L571.7 243.5L572.7 328.3Z" fill="#1a1a1a" stroke="#1a1a1a"></path><path d="M486.9 163.6L408.1 158.6L413.1 241.5Z" fill="#404141" stroke="#404141"></path><path d="M86.8 327.3L85.8 411.1L162.6 404.1Z" fill="#1a1a1a" stroke="#1a1a1a"></path><path d="M85.8 577.7L157.6 650.5L165.6 576.7Z" fill="#313232" stroke="#313232"></path><path d="M165.6 576.7L157.6 650.5L248.5 653.5Z" fill="#151515" stroke="#151515"></path><path d="M486.9 163.6L413.1 241.5L489.9 247.5Z" fill="#151515" stroke="#151515"></path><path d="M166.6 165.6L158.6 247.5L248.5 246.5Z" fill="#1a1a1a" stroke="#1a1a1a"></path><path d="M166.6 327.3L86.8 327.3L162.6 404.1Z" fill="#363737" stroke="#363737"></path><path d="M651.5 654.5L650.5 570.7L577.7 569.7Z" fill="#232323" stroke="#232323"></path><path d="M655.5 404.1L650.5 330.3L574.7 405.1Z" fill="#101010" stroke="#101010"></path><path d="M412.1 733.4L494.9 732.4L492.9 650.5Z" fill="#363737" stroke="#363737"></path><path d="M568.7 653.5L651.5 654.5L577.7 569.7Z" fill="#1a1a1a" stroke="#1a1a1a"></path><path d="M571.7 243.5L486.9 163.6L489.9 247.5Z" fill="#282828" stroke="#282828"></path><path d="M158.6 247.5L86.8 327.3L166.6 327.3Z" fill="#363737" stroke="#363737"></path><path d="M78.8 657.5L85.8 577.7L0 577.7Z" fill="#232323" stroke="#232323"></path><path d="M86.8 491.9L85.8 577.7L165.6 576.7Z" fill="#363737" stroke="#363737"></path><path d="M161.6 737.4L242.5 738.4L248.5 653.5Z" fill="#404141" stroke="#404141"></path><path d="M326.3 732.4L328.3 815.2L412.1 733.4Z" fill="#363737" stroke="#363737"></path><path d="M573.7 816.2L571.7 737.4L494.9 732.4Z" fill="#101010" stroke="#101010"></path><path d="M161.6 737.4L248.5 653.5L157.6 650.5Z" fill="#1a1a1a" stroke="#1a1a1a"></path><path d="M323.3 82.8L248.5 158.6L326.3 168.6Z" fill="#2d2d2d" stroke="#2d2d2d"></path><path d="M326.3 168.6L248.5 158.6L248.5 246.5Z" fill="#151515" stroke="#151515"></path><path d="M571.7 737.4L651.5 654.5L568.7 653.5Z" fill="#101010" stroke="#101010"></path><path d="M735.4 573.7L732.4 487.9L656.5 495.9Z" fill="#151515" stroke="#151515"></path><path d="M494.9 732.4L571.7 737.4L568.7 653.5Z" fill="#282828" stroke="#282828"></path><path d="M489.9 819.2L494.9 732.4L412.1 733.4Z" fill="#101010" stroke="#101010"></path><path d="M652.5 167.6L569.7 162.6L571.7 243.5Z" fill="#151515" stroke="#151515"></path><path d="M571.7 243.5L569.7 162.6L486.9 163.6Z" fill="#404141" stroke="#404141"></path><path d="M486.9 163.6L414.1 82.8L408.1 158.6Z" fill="#363737" stroke="#363737"></path><path d="M650.5 330.3L656.5 246.5L572.7 328.3Z" fill="#282828" stroke="#282828"></path><path d="M735.4 328.3L656.5 246.5L650.5 330.3Z" fill="#1f1f1f" stroke="#1f1f1f"></path><path d="M735.4 328.3L650.5 330.3L655.5 404.1Z" fill="#1f1f1f" stroke="#1f1f1f"></path><path d="M248.5 158.6L166.6 165.6L248.5 246.5Z" fill="#313232" stroke="#313232"></path><path d="M158.6 247.5L81.8 247.5L86.8 327.3Z" fill="#313232" stroke="#313232"></path><path d="M78.8 657.5L161.6 737.4L157.6 650.5Z" fill="#313232" stroke="#313232"></path><path d="M166.6 165.6L81.8 247.5L158.6 247.5Z" fill="#1a1a1a" stroke="#1a1a1a"></path><path d="M0 410.1L86.8 491.9L85.8 411.1Z" fill="#232323" stroke="#232323"></path><path d="M0 494.9L85.8 577.7L86.8 491.9Z" fill="#404141" stroke="#404141"></path><path d="M85.8 577.7L78.8 657.5L157.6 650.5Z" fill="#1f1f1f" stroke="#1f1f1f"></path><path d="M0 494.9L86.8 491.9L0 410.1Z" fill="#313232" stroke="#313232"></path><path d="M735.4 573.7L656.5 495.9L650.5 570.7Z" fill="#1f1f1f" stroke="#1f1f1f"></path><path d="M656.5 495.9L732.4 487.9L655.5 404.1Z" fill="#151515" stroke="#151515"></path><path d="M246.5 813.2L326.3 732.4L242.5 738.4Z" fill="#363737" stroke="#363737"></path><path d="M246.5 813.2L328.3 815.2L326.3 732.4Z" fill="#101010" stroke="#101010"></path><path d="M328.3 815.2L413.1 818.2L412.1 733.4Z" fill="#363737" stroke="#363737"></path><path d="M732.4 487.9L740.4 407.1L655.5 404.1Z" fill="#2d2d2d" stroke="#2d2d2d"></path><path d="M489.9 75.8L414.1 82.8L486.9 163.6Z" fill="#282828" stroke="#282828"></path><path d="M408.1 158.6L323.3 82.8L326.3 168.6Z" fill="#101010" stroke="#101010"></path><path d="M248.5 158.6L168.6 79.8L166.6 165.6Z" fill="#313232" stroke="#313232"></path><path d="M414.1 82.8L323.3 82.8L408.1 158.6Z" fill="#3b3c3c" stroke="#3b3c3c"></path><path d="M0 410.1L85.8 411.1L0 329.3Z" fill="#151515" stroke="#151515"></path><path d="M0 329.3L85.8 411.1L86.8 327.3Z" fill="#282828" stroke="#282828"></path><path d="M167.6 821.2L246.5 813.2L242.5 738.4Z" fill="#151515" stroke="#151515"></path><path d="M328.3 815.2L404.1 900L413.1 818.2Z" fill="#1f1f1f" stroke="#1f1f1f"></path><path d="M651.5 654.5L735.4 573.7L650.5 570.7Z" fill="#1a1a1a" stroke="#1a1a1a"></path><path d="M732.4 487.9L820.2 485.9L740.4 407.1Z" fill="#404141" stroke="#404141"></path><path d="M736.4 657.5L735.4 573.7L651.5 654.5Z" fill="#363737" stroke="#363737"></path><path d="M740.4 407.1L735.4 328.3L655.5 404.1Z" fill="#101010" stroke="#101010"></path><path d="M413.1 818.2L489.9 819.2L412.1 733.4Z" fill="#363737" stroke="#363737"></path><path d="M81.8 247.5L0 329.3L86.8 327.3Z" fill="#2d2d2d" stroke="#2d2d2d"></path><path d="M0 494.9L0 577.7L85.8 577.7Z" fill="#151515" stroke="#151515"></path><path d="M569.7 162.6L489.9 75.8L486.9 163.6Z" fill="#232323" stroke="#232323"></path><path d="M414.1 82.8L407.1 0L323.3 82.8Z" fill="#2d2d2d" stroke="#2d2d2d"></path><path d="M577.7 77.8L489.9 75.8L569.7 162.6Z" fill="#363737" stroke="#363737"></path><path d="M326.3 0L242.5 75.8L323.3 82.8Z" fill="#151515" stroke="#151515"></path><path d="M323.3 82.8L242.5 75.8L248.5 158.6Z" fill="#1f1f1f" stroke="#1f1f1f"></path><path d="M166.6 165.6L76.8 158.6L81.8 247.5Z" fill="#313232" stroke="#313232"></path><path d="M81.8 247.5L0 241.5L0 329.3Z" fill="#2d2d2d" stroke="#2d2d2d"></path><path d="M733.4 166.6L652.5 167.6L656.5 246.5Z" fill="#1a1a1a" stroke="#1a1a1a"></path><path d="M656.5 246.5L652.5 167.6L571.7 243.5Z" fill="#363737" stroke="#363737"></path><path d="M573.7 816.2L652.5 741.4L571.7 737.4Z" fill="#151515" stroke="#151515"></path><path d="M571.7 737.4L652.5 741.4L651.5 654.5Z" fill="#151515" stroke="#151515"></path><path d="M78.8 657.5L78.8 738.4L161.6 737.4Z" fill="#363737" stroke="#363737"></path><path d="M161.6 737.4L167.6 821.2L242.5 738.4Z" fill="#363737" stroke="#363737"></path><path d="M0 737.4L78.8 738.4L78.8 657.5Z" fill="#404141" stroke="#404141"></path><path d="M489.9 819.2L573.7 816.2L494.9 732.4Z" fill="#404141" stroke="#404141"></path><path d="M168.6 79.8L76.8 158.6L166.6 165.6Z" fill="#404141" stroke="#404141"></path><path d="M652.5 741.4L736.4 657.5L651.5 654.5Z" fill="#1f1f1f" stroke="#1f1f1f"></path><path d="M814.2 567.7L820.2 485.9L732.4 487.9Z" fill="#363737" stroke="#363737"></path><path d="M735.4 328.3L734.4 242.5L656.5 246.5Z" fill="#1f1f1f" stroke="#1f1f1f"></path><path d="M814.2 325.3L734.4 242.5L735.4 328.3Z" fill="#101010" stroke="#101010"></path><path d="M82.8 822.2L167.6 821.2L161.6 737.4Z" fill="#2d2d2d" stroke="#2d2d2d"></path><path d="M321.3 900L404.1 900L328.3 815.2Z" fill="#1a1a1a" stroke="#1a1a1a"></path><path d="M413.1 818.2L492.9 900L489.9 819.2Z" fill="#101010" stroke="#101010"></path><path d="M0 577.7L0 653.5L78.8 657.5Z" fill="#2d2d2d" stroke="#2d2d2d"></path><path d="M242.5 75.8L168.6 79.8L248.5 158.6Z" fill="#1a1a1a" stroke="#1a1a1a"></path><path d="M658.5 82.8L577.7 77.8L652.5 167.6Z" fill="#151515" stroke="#151515"></path><path d="M652.5 167.6L577.7 77.8L569.7 162.6Z" fill="#151515" stroke="#151515"></path><path d="M76.8 158.6L0 241.5L81.8 247.5Z" fill="#151515" stroke="#151515"></path><path d="M321.3 900L328.3 815.2L246.5 813.2Z" fill="#313232" stroke="#313232"></path><path d="M489.9 819.2L492.9 900L573.7 816.2Z" fill="#313232" stroke="#313232"></path><path d="M814.2 567.7L732.4 487.9L735.4 573.7Z" fill="#101010" stroke="#101010"></path><path d="M740.4 407.1L814.2 325.3L735.4 328.3Z" fill="#3b3c3c" stroke="#3b3c3c"></path><path d="M240.5 900L321.3 900L246.5 813.2Z" fill="#2d2d2d" stroke="#2d2d2d"></path><path d="M820.2 485.9L823.2 406.1L740.4 407.1Z" fill="#313232" stroke="#313232"></path><path d="M492.9 0L407.1 0L489.9 75.8Z" fill="#313232" stroke="#313232"></path><path d="M489.9 75.8L407.1 0L414.1 82.8Z" fill="#404141" stroke="#404141"></path><path d="M242.5 75.8L240.5 0L168.6 79.8Z" fill="#1f1f1f" stroke="#1f1f1f"></path><path d="M407.1 0L326.3 0L323.3 82.8Z" fill="#3b3c3c" stroke="#3b3c3c"></path><path d="M652.5 741.4L740.4 741.4L736.4 657.5Z" fill="#1a1a1a" stroke="#1a1a1a"></path><path d="M573.7 816.2L653.5 812.2L652.5 741.4Z" fill="#313232" stroke="#313232"></path><path d="M652.5 900L653.5 812.2L573.7 816.2Z" fill="#101010" stroke="#101010"></path><path d="M813.2 658.5L814.2 567.7L735.4 573.7Z" fill="#1f1f1f" stroke="#1f1f1f"></path><path d="M813.2 658.5L735.4 573.7L736.4 657.5Z" fill="#363737" stroke="#363737"></path><path d="M823.2 406.1L814.2 325.3L740.4 407.1Z" fill="#1a1a1a" stroke="#1a1a1a"></path><path d="M734.4 242.5L733.4 166.6L656.5 246.5Z" fill="#2d2d2d" stroke="#2d2d2d"></path><path d="M820.2 158.6L733.4 166.6L734.4 242.5Z" fill="#404141" stroke="#404141"></path><path d="M404.1 900L492.9 900L413.1 818.2Z" fill="#282828" stroke="#282828"></path><path d="M167.6 821.2L240.5 900L246.5 813.2Z" fill="#1a1a1a" stroke="#1a1a1a"></path><path d="M163.6 900L240.5 900L167.6 821.2Z" fill="#3b3c3c" stroke="#3b3c3c"></path><path d="M653.5 812.2L740.4 741.4L652.5 741.4Z" fill="#1f1f1f" stroke="#1f1f1f"></path><path d="M733.4 166.6L658.5 82.8L652.5 167.6Z" fill="#404141" stroke="#404141"></path><path d="M577.7 77.8L492.9 0L489.9 75.8Z" fill="#282828" stroke="#282828"></path><path d="M577.7 0L492.9 0L577.7 77.8Z" fill="#313232" stroke="#313232"></path><path d="M0 653.5L0 737.4L78.8 657.5Z" fill="#3b3c3c" stroke="#3b3c3c"></path><path d="M78.8 738.4L82.8 822.2L161.6 737.4Z" fill="#101010" stroke="#101010"></path><path d="M0 814.2L82.8 822.2L78.8 738.4Z" fill="#2d2d2d" stroke="#2d2d2d"></path><path d="M326.3 0L240.5 0L242.5 75.8Z" fill="#232323" stroke="#232323"></path><path d="M0 84.8L0 158.6L76.8 158.6Z" fill="#2d2d2d" stroke="#2d2d2d"></path><path d="M75.8 80.8L76.8 158.6L168.6 79.8Z" fill="#1f1f1f" stroke="#1f1f1f"></path><path d="M76.8 158.6L0 158.6L0 241.5Z" fill="#1f1f1f" stroke="#1f1f1f"></path><path d="M159.6 0L75.8 80.8L168.6 79.8Z" fill="#313232" stroke="#313232"></path><path d="M740.4 741.4L813.2 658.5L736.4 657.5Z" fill="#2d2d2d" stroke="#2d2d2d"></path><path d="M900 493.9L900 412.1L820.2 485.9Z" fill="#313232" stroke="#313232"></path><path d="M492.9 900L576.7 900L573.7 816.2Z" fill="#1a1a1a" stroke="#1a1a1a"></path><path d="M653.5 812.2L737.4 820.2L740.4 741.4Z" fill="#3b3c3c" stroke="#3b3c3c"></path><path d="M900 323.3L821.2 249.5L814.2 325.3Z" fill="#363737" stroke="#363737"></path><path d="M814.2 325.3L821.2 249.5L734.4 242.5Z" fill="#2d2d2d" stroke="#2d2d2d"></path><path d="M733.4 166.6L740.4 78.8L658.5 82.8Z" fill="#1f1f1f" stroke="#1f1f1f"></path><path d="M82.8 822.2L163.6 900L167.6 821.2Z" fill="#101010" stroke="#101010"></path><path d="M654.5 0L577.7 0L577.7 77.8Z" fill="#313232" stroke="#313232"></path><path d="M654.5 0L577.7 77.8L658.5 82.8Z" fill="#101010" stroke="#101010"></path><path d="M240.5 0L159.6 0L168.6 79.8Z" fill="#3b3c3c" stroke="#3b3c3c"></path><path d="M652.5 900L737.4 820.2L653.5 812.2Z" fill="#151515" stroke="#151515"></path><path d="M740.4 741.4L815.2 735.4L813.2 658.5Z" fill="#2d2d2d" stroke="#2d2d2d"></path><path d="M0 737.4L0 814.2L78.8 738.4Z" fill="#363737" stroke="#363737"></path><path d="M82.8 822.2L77.8 900L163.6 900Z" fill="#1a1a1a" stroke="#1a1a1a"></path><path d="M0 0L0 84.8L75.8 80.8Z" fill="#404141" stroke="#404141"></path><path d="M75.8 80.8L0 84.8L76.8 158.6Z" fill="#3b3c3c" stroke="#3b3c3c"></path><path d="M820.2 158.6L740.4 78.8L733.4 166.6Z" fill="#363737" stroke="#363737"></path><path d="M813.2 814.2L815.2 735.4L740.4 741.4Z" fill="#1f1f1f" stroke="#1f1f1f"></path><path d="M900 493.9L820.2 485.9L814.2 567.7Z" fill="#404141" stroke="#404141"></path><path d="M820.2 485.9L900 412.1L823.2 406.1Z" fill="#232323" stroke="#232323"></path><path d="M576.7 900L652.5 900L573.7 816.2Z" fill="#313232" stroke="#313232"></path><path d="M823.2 406.1L900 323.3L814.2 325.3Z" fill="#232323" stroke="#232323"></path><path d="M821.2 249.5L820.2 158.6L734.4 242.5Z" fill="#101010" stroke="#101010"></path><path d="M900 493.9L814.2 567.7L900 575.7Z" fill="#1a1a1a" stroke="#1a1a1a"></path><path d="M900 575.7L814.2 567.7L813.2 658.5Z" fill="#151515" stroke="#151515"></path><path d="M733.4 0L654.5 0L658.5 82.8Z" fill="#3b3c3c" stroke="#3b3c3c"></path><path d="M900 163.6L820.2 158.6L821.2 249.5Z" fill="#282828" stroke="#282828"></path><path d="M0 900L77.8 900L82.8 822.2Z" fill="#1a1a1a" stroke="#1a1a1a"></path><path d="M159.6 0L77.8 0L75.8 80.8Z" fill="#101010" stroke="#101010"></path><path d="M900 653.5L900 575.7L813.2 658.5Z" fill="#363737" stroke="#363737"></path><path d="M900 412.1L900 323.3L823.2 406.1Z" fill="#1f1f1f" stroke="#1f1f1f"></path><path d="M900 733.4L900 653.5L813.2 658.5Z" fill="#151515" stroke="#151515"></path><path d="M900 733.4L813.2 658.5L815.2 735.4Z" fill="#101010" stroke="#101010"></path><path d="M900 323.3L900 250.5L821.2 249.5Z" fill="#404141" stroke="#404141"></path><path d="M819.2 900L813.2 814.2L737.4 820.2Z" fill="#404141" stroke="#404141"></path><path d="M737.4 820.2L813.2 814.2L740.4 741.4Z" fill="#1a1a1a" stroke="#1a1a1a"></path><path d="M652.5 900L735.4 900L737.4 820.2Z" fill="#2d2d2d" stroke="#2d2d2d"></path><path d="M822.2 76.8L740.4 78.8L820.2 158.6Z" fill="#151515" stroke="#151515"></path><path d="M823.2 0L733.4 0L740.4 78.8Z" fill="#101010" stroke="#101010"></path><path d="M740.4 78.8L733.4 0L658.5 82.8Z" fill="#404141" stroke="#404141"></path><path d="M0 814.2L0 900L82.8 822.2Z" fill="#363737" stroke="#363737"></path><path d="M900 85.8L822.2 76.8L820.2 158.6Z" fill="#404141" stroke="#404141"></path><path d="M77.8 0L0 0L75.8 80.8Z" fill="#313232" stroke="#313232"></path><path d="M900 814.2L815.2 735.4L813.2 814.2Z" fill="#232323" stroke="#232323"></path><path d="M900 814.2L900 733.4L815.2 735.4Z" fill="#3b3c3c" stroke="#3b3c3c"></path><path d="M900 250.5L900 163.6L821.2 249.5Z" fill="#363737" stroke="#363737"></path><path d="M735.4 900L819.2 900L737.4 820.2Z" fill="#282828" stroke="#282828"></path><path d="M900 0L823.2 0L822.2 76.8Z" fill="#404141" stroke="#404141"></path><path d="M822.2 76.8L823.2 0L740.4 78.8Z" fill="#282828" stroke="#282828"></path><path d="M819.2 900L900 814.2L813.2 814.2Z" fill="#282828" stroke="#282828"></path><path d="M900 163.6L900 85.8L820.2 158.6Z" fill="#404141" stroke="#404141"></path><path d="M819.2 900L900 900L900 814.2Z" fill="#101010" stroke="#101010"></path><path d="M900 85.8L900 0L822.2 76.8Z" fill="#1a1a1a" stroke="#1a1a1a"></path></g></svg>